<mxfile host="app.diagrams.net" modified="2024-03-16T18:12:53.786Z" agent="Mozilla/5.0 (Windows NT 10.0; Win64; x64) AppleWebKit/537.36 (KHTML, like Gecko) Chrome/122.0.0.0 Safari/537.36" etag="IpxIcoAI1_A2rZJLjrRQ" version="23.0.2" type="device">
  <diagram id="R2lEEEUBdFMjLlhIrx00" name="Page-1">
    <mxGraphModel dx="2206" dy="2248" grid="1" gridSize="10" guides="1" tooltips="1" connect="1" arrows="1" fold="1" page="1" pageScale="1" pageWidth="850" pageHeight="1100" math="0" shadow="0" extFonts="Permanent Marker^https://fonts.googleapis.com/css?family=Permanent+Marker">
      <root>
        <mxCell id="0" />
        <mxCell id="1" parent="0" />
        <mxCell id="SXCJhAjKf7nb-w6kiQrv-19" value="" style="rounded=0;whiteSpace=wrap;html=1;fillColor=none;dashed=1;" parent="1" vertex="1">
          <mxGeometry x="370" y="120" width="150" height="430" as="geometry" />
        </mxCell>
        <mxCell id="SXCJhAjKf7nb-w6kiQrv-20" value="" style="rounded=0;whiteSpace=wrap;html=1;fillColor=none;dashed=1;" parent="1" vertex="1">
          <mxGeometry x="535" y="120" width="735" height="430" as="geometry" />
        </mxCell>
        <mxCell id="SXCJhAjKf7nb-w6kiQrv-1" value="&lt;b&gt;Raw Data&lt;/b&gt;" style="rounded=0;whiteSpace=wrap;html=1;fillColor=#f5f5f5;fontColor=#333333;strokeColor=#666666;" parent="1" vertex="1">
          <mxGeometry x="30" y="281" width="120" height="90" as="geometry" />
        </mxCell>
        <mxCell id="SXCJhAjKf7nb-w6kiQrv-2" value="&lt;b&gt;Load Data&lt;/b&gt;" style="rounded=0;whiteSpace=wrap;html=1;fillColor=#f5f5f5;fontColor=#333333;strokeColor=#666666;" parent="1" vertex="1">
          <mxGeometry x="200" y="281" width="120" height="90" as="geometry" />
        </mxCell>
        <mxCell id="SXCJhAjKf7nb-w6kiQrv-5" value="" style="endArrow=classic;html=1;rounded=0;exitX=1;exitY=0.5;exitDx=0;exitDy=0;entryX=0;entryY=0.5;entryDx=0;entryDy=0;" parent="1" source="SXCJhAjKf7nb-w6kiQrv-1" target="SXCJhAjKf7nb-w6kiQrv-2" edge="1">
          <mxGeometry width="50" height="50" relative="1" as="geometry">
            <mxPoint x="190" y="361" as="sourcePoint" />
            <mxPoint x="240" y="311" as="targetPoint" />
          </mxGeometry>
        </mxCell>
        <mxCell id="fnRuPF89Nc_uUHGO6Oz5-6" style="edgeStyle=orthogonalEdgeStyle;rounded=0;orthogonalLoop=1;jettySize=auto;html=1;entryX=0;entryY=0.5;entryDx=0;entryDy=0;" parent="1" source="SXCJhAjKf7nb-w6kiQrv-6" target="fnRuPF89Nc_uUHGO6Oz5-1" edge="1">
          <mxGeometry relative="1" as="geometry" />
        </mxCell>
        <mxCell id="SXCJhAjKf7nb-w6kiQrv-6" value="&lt;b&gt;iris_test.csv&lt;/b&gt;" style="rounded=0;whiteSpace=wrap;html=1;fillColor=#ffe6cc;strokeColor=#d79b00;" parent="1" vertex="1">
          <mxGeometry x="384" y="143" width="120" height="90" as="geometry" />
        </mxCell>
        <mxCell id="SXCJhAjKf7nb-w6kiQrv-7" value="&lt;b&gt;strat_train.csv&lt;/b&gt;" style="rounded=0;whiteSpace=wrap;html=1;fillColor=#ffe6cc;strokeColor=#d79b00;" parent="1" vertex="1">
          <mxGeometry x="384" y="433" width="120" height="90" as="geometry" />
        </mxCell>
        <mxCell id="SXCJhAjKf7nb-w6kiQrv-8" value="" style="endArrow=classic;html=1;rounded=0;exitX=1;exitY=0.5;exitDx=0;exitDy=0;entryX=0;entryY=0.5;entryDx=0;entryDy=0;" parent="1" source="SXCJhAjKf7nb-w6kiQrv-2" target="SXCJhAjKf7nb-w6kiQrv-6" edge="1">
          <mxGeometry width="50" height="50" relative="1" as="geometry">
            <mxPoint x="160" y="336" as="sourcePoint" />
            <mxPoint x="210" y="336" as="targetPoint" />
          </mxGeometry>
        </mxCell>
        <mxCell id="SXCJhAjKf7nb-w6kiQrv-9" value="" style="endArrow=classic;html=1;rounded=0;exitX=1;exitY=0.5;exitDx=0;exitDy=0;entryX=0;entryY=0.5;entryDx=0;entryDy=0;" parent="1" source="SXCJhAjKf7nb-w6kiQrv-2" target="SXCJhAjKf7nb-w6kiQrv-7" edge="1">
          <mxGeometry width="50" height="50" relative="1" as="geometry">
            <mxPoint x="330" y="336" as="sourcePoint" />
            <mxPoint x="420" y="271" as="targetPoint" />
          </mxGeometry>
        </mxCell>
        <mxCell id="SXCJhAjKf7nb-w6kiQrv-10" value="Imputation" style="rounded=0;whiteSpace=wrap;html=1;fillColor=#dae8fc;strokeColor=#6c8ebf;" parent="1" vertex="1">
          <mxGeometry x="550" y="433" width="120" height="90" as="geometry" />
        </mxCell>
        <mxCell id="30UFv2fYdOJedgvPoDE5-5" style="edgeStyle=orthogonalEdgeStyle;rounded=0;orthogonalLoop=1;jettySize=auto;html=1;" edge="1" parent="1" source="SXCJhAjKf7nb-w6kiQrv-12" target="30UFv2fYdOJedgvPoDE5-3">
          <mxGeometry relative="1" as="geometry" />
        </mxCell>
        <mxCell id="SXCJhAjKf7nb-w6kiQrv-12" value="One-Hot-Encoding&lt;br&gt;of Labels" style="rounded=0;whiteSpace=wrap;html=1;fillColor=#dae8fc;strokeColor=#6c8ebf;" parent="1" vertex="1">
          <mxGeometry x="900" y="143" width="120" height="90" as="geometry" />
        </mxCell>
        <mxCell id="fnRuPF89Nc_uUHGO6Oz5-20" style="edgeStyle=orthogonalEdgeStyle;rounded=0;orthogonalLoop=1;jettySize=auto;html=1;entryX=0;entryY=0.5;entryDx=0;entryDy=0;" parent="1" source="SXCJhAjKf7nb-w6kiQrv-13" target="30UFv2fYdOJedgvPoDE5-2" edge="1">
          <mxGeometry relative="1" as="geometry" />
        </mxCell>
        <mxCell id="SXCJhAjKf7nb-w6kiQrv-13" value="Feature Scaling" style="rounded=0;whiteSpace=wrap;html=1;fillColor=#dae8fc;strokeColor=#6c8ebf;" parent="1" vertex="1">
          <mxGeometry x="720" y="433" width="120" height="90" as="geometry" />
        </mxCell>
        <mxCell id="SXCJhAjKf7nb-w6kiQrv-14" value="" style="endArrow=classic;html=1;rounded=0;exitX=1;exitY=0.5;exitDx=0;exitDy=0;entryX=0;entryY=0.5;entryDx=0;entryDy=0;" parent="1" source="SXCJhAjKf7nb-w6kiQrv-7" target="SXCJhAjKf7nb-w6kiQrv-10" edge="1">
          <mxGeometry width="50" height="50" relative="1" as="geometry">
            <mxPoint x="304" y="423" as="sourcePoint" />
            <mxPoint x="394" y="488" as="targetPoint" />
          </mxGeometry>
        </mxCell>
        <mxCell id="SXCJhAjKf7nb-w6kiQrv-15" value="" style="endArrow=classic;html=1;rounded=0;exitX=1;exitY=0.5;exitDx=0;exitDy=0;entryX=0;entryY=0.5;entryDx=0;entryDy=0;" parent="1" source="SXCJhAjKf7nb-w6kiQrv-10" target="SXCJhAjKf7nb-w6kiQrv-13" edge="1">
          <mxGeometry width="50" height="50" relative="1" as="geometry">
            <mxPoint x="500" y="488" as="sourcePoint" />
            <mxPoint x="715" y="478" as="targetPoint" />
          </mxGeometry>
        </mxCell>
        <mxCell id="SXCJhAjKf7nb-w6kiQrv-21" value="" style="shape=image;verticalLabelPosition=bottom;labelBackgroundColor=default;verticalAlign=top;aspect=fixed;imageAspect=0;image=https://upload.wikimedia.org/wikipedia/commons/thumb/0/05/Scikit_learn_logo_small.svg/1200px-Scikit_learn_logo_small.svg.png;" parent="1" vertex="1">
          <mxGeometry x="30.25" y="-28" width="159.75" height="86" as="geometry" />
        </mxCell>
        <mxCell id="SXCJhAjKf7nb-w6kiQrv-22" value="&lt;font style=&quot;font-size: 30px;&quot;&gt;ML-Pipeline&amp;nbsp;&lt;/font&gt;" style="text;strokeColor=none;align=center;fillColor=none;html=1;verticalAlign=middle;whiteSpace=wrap;rounded=0;" parent="1" vertex="1">
          <mxGeometry x="196" y="15" width="180" height="40" as="geometry" />
        </mxCell>
        <mxCell id="30UFv2fYdOJedgvPoDE5-1" style="edgeStyle=orthogonalEdgeStyle;rounded=0;orthogonalLoop=1;jettySize=auto;html=1;entryX=0;entryY=0.5;entryDx=0;entryDy=0;" edge="1" parent="1" source="fnRuPF89Nc_uUHGO6Oz5-1" target="fnRuPF89Nc_uUHGO6Oz5-4">
          <mxGeometry relative="1" as="geometry" />
        </mxCell>
        <mxCell id="fnRuPF89Nc_uUHGO6Oz5-1" value="Imputation" style="rounded=0;whiteSpace=wrap;html=1;fillColor=#dae8fc;strokeColor=#6c8ebf;" parent="1" vertex="1">
          <mxGeometry x="550" y="143" width="120" height="90" as="geometry" />
        </mxCell>
        <mxCell id="fnRuPF89Nc_uUHGO6Oz5-22" style="edgeStyle=orthogonalEdgeStyle;rounded=0;orthogonalLoop=1;jettySize=auto;html=1;" parent="1" source="fnRuPF89Nc_uUHGO6Oz5-4" edge="1">
          <mxGeometry relative="1" as="geometry">
            <mxPoint x="900" y="188" as="targetPoint" />
          </mxGeometry>
        </mxCell>
        <mxCell id="fnRuPF89Nc_uUHGO6Oz5-4" value="Feature Scaling" style="rounded=0;whiteSpace=wrap;html=1;fillColor=#dae8fc;strokeColor=#6c8ebf;" parent="1" vertex="1">
          <mxGeometry x="720" y="143" width="120" height="90" as="geometry" />
        </mxCell>
        <mxCell id="fnRuPF89Nc_uUHGO6Oz5-11" value="&lt;font style=&quot;font-size: 15px;&quot;&gt;Train-Test-Split&lt;/font&gt;" style="text;strokeColor=none;align=center;fillColor=none;html=1;verticalAlign=middle;whiteSpace=wrap;rounded=0;" parent="1" vertex="1">
          <mxGeometry x="354" y="80" width="180" height="40" as="geometry" />
        </mxCell>
        <mxCell id="fnRuPF89Nc_uUHGO6Oz5-12" value="&lt;font style=&quot;font-size: 16px;&quot;&gt;Pre-Processing and Feature-Engineering&lt;/font&gt;" style="text;strokeColor=none;align=center;fillColor=none;html=1;verticalAlign=middle;whiteSpace=wrap;rounded=0;" parent="1" vertex="1">
          <mxGeometry x="617" y="80" width="330" height="40" as="geometry" />
        </mxCell>
        <mxCell id="fnRuPF89Nc_uUHGO6Oz5-13" value="" style="rounded=0;whiteSpace=wrap;html=1;fillColor=none;dashed=1;" parent="1" vertex="1">
          <mxGeometry x="1295" y="120" width="380" height="430" as="geometry" />
        </mxCell>
        <mxCell id="fnRuPF89Nc_uUHGO6Oz5-16" style="edgeStyle=orthogonalEdgeStyle;rounded=0;orthogonalLoop=1;jettySize=auto;html=1;" parent="1" source="fnRuPF89Nc_uUHGO6Oz5-14" target="fnRuPF89Nc_uUHGO6Oz5-15" edge="1">
          <mxGeometry relative="1" as="geometry" />
        </mxCell>
        <mxCell id="fnRuPF89Nc_uUHGO6Oz5-14" value="KNN Model Training" style="rounded=0;whiteSpace=wrap;html=1;fillColor=#f8cecc;strokeColor=#b85450;" parent="1" vertex="1">
          <mxGeometry x="1382" y="433" width="120" height="90" as="geometry" />
        </mxCell>
        <mxCell id="fnRuPF89Nc_uUHGO6Oz5-15" value="Model" style="ellipse;whiteSpace=wrap;html=1;fillColor=#f8cecc;strokeColor=#b85450;" parent="1" vertex="1">
          <mxGeometry x="1549" y="438" width="80" height="80" as="geometry" />
        </mxCell>
        <mxCell id="fnRuPF89Nc_uUHGO6Oz5-24" style="edgeStyle=orthogonalEdgeStyle;rounded=0;orthogonalLoop=1;jettySize=auto;html=1;exitX=1;exitY=0.5;exitDx=0;exitDy=0;" parent="1" source="30UFv2fYdOJedgvPoDE5-4" target="fnRuPF89Nc_uUHGO6Oz5-14" edge="1">
          <mxGeometry relative="1" as="geometry">
            <mxPoint x="1469" y="478" as="sourcePoint" />
          </mxGeometry>
        </mxCell>
        <mxCell id="fnRuPF89Nc_uUHGO6Oz5-28" value="&lt;font style=&quot;font-size: 18px;&quot;&gt;Model Training and Prediction&lt;/font&gt;" style="text;strokeColor=none;align=center;fillColor=none;html=1;verticalAlign=middle;whiteSpace=wrap;rounded=0;" parent="1" vertex="1">
          <mxGeometry x="1298.75" y="80" width="372.5" height="40" as="geometry" />
        </mxCell>
        <mxCell id="fnRuPF89Nc_uUHGO6Oz5-30" value="&lt;font style=&quot;font-size: 9px;&quot;&gt;Predictions&lt;/font&gt;" style="shape=cylinder3;whiteSpace=wrap;html=1;boundedLbl=1;backgroundOutline=1;size=15;fillColor=#f5f5f5;fontColor=#333333;strokeColor=#666666;" parent="1" vertex="1">
          <mxGeometry x="1720" y="143" width="60" height="80" as="geometry" />
        </mxCell>
        <mxCell id="fnRuPF89Nc_uUHGO6Oz5-31" style="edgeStyle=orthogonalEdgeStyle;rounded=0;orthogonalLoop=1;jettySize=auto;html=1;entryX=0;entryY=0.5;entryDx=0;entryDy=0;entryPerimeter=0;exitX=1;exitY=0.5;exitDx=0;exitDy=0;" parent="1" source="30UFv2fYdOJedgvPoDE5-9" target="fnRuPF89Nc_uUHGO6Oz5-30" edge="1">
          <mxGeometry relative="1" as="geometry">
            <mxPoint x="1649" y="188" as="sourcePoint" />
          </mxGeometry>
        </mxCell>
        <mxCell id="30UFv2fYdOJedgvPoDE5-6" style="edgeStyle=orthogonalEdgeStyle;rounded=0;orthogonalLoop=1;jettySize=auto;html=1;entryX=0;entryY=0.5;entryDx=0;entryDy=0;" edge="1" parent="1" source="30UFv2fYdOJedgvPoDE5-2" target="30UFv2fYdOJedgvPoDE5-4">
          <mxGeometry relative="1" as="geometry" />
        </mxCell>
        <mxCell id="30UFv2fYdOJedgvPoDE5-2" value="One-Hot-Encoding&lt;br&gt;of Labels" style="rounded=0;whiteSpace=wrap;html=1;fillColor=#dae8fc;strokeColor=#6c8ebf;" vertex="1" parent="1">
          <mxGeometry x="900" y="433" width="120" height="90" as="geometry" />
        </mxCell>
        <mxCell id="30UFv2fYdOJedgvPoDE5-3" value="&lt;b&gt;iris_test_preprocessed.csv&lt;/b&gt;" style="rounded=0;whiteSpace=wrap;html=1;fillColor=#ffe6cc;strokeColor=#d79b00;" vertex="1" parent="1">
          <mxGeometry x="1070" y="143" width="180" height="90" as="geometry" />
        </mxCell>
        <mxCell id="30UFv2fYdOJedgvPoDE5-4" value="&lt;b&gt;iris_train_preprocessed.csv&lt;/b&gt;" style="rounded=0;whiteSpace=wrap;html=1;fillColor=#ffe6cc;strokeColor=#d79b00;" vertex="1" parent="1">
          <mxGeometry x="1070" y="433" width="180" height="90" as="geometry" />
        </mxCell>
        <mxCell id="30UFv2fYdOJedgvPoDE5-10" value="" style="edgeStyle=orthogonalEdgeStyle;rounded=0;orthogonalLoop=1;jettySize=auto;html=1;entryX=0.5;entryY=1;entryDx=0;entryDy=0;exitX=0.5;exitY=0;exitDx=0;exitDy=0;" edge="1" parent="1" source="fnRuPF89Nc_uUHGO6Oz5-15" target="30UFv2fYdOJedgvPoDE5-9">
          <mxGeometry relative="1" as="geometry">
            <mxPoint x="1589" y="438" as="sourcePoint" />
            <mxPoint x="1760" y="188" as="targetPoint" />
          </mxGeometry>
        </mxCell>
        <mxCell id="30UFv2fYdOJedgvPoDE5-9" value="&lt;b&gt;Read Test Data&lt;/b&gt;" style="rounded=0;whiteSpace=wrap;html=1;fillColor=#f5f5f5;fontColor=#333333;strokeColor=#666666;" vertex="1" parent="1">
          <mxGeometry x="1529" y="138" width="120" height="90" as="geometry" />
        </mxCell>
      </root>
    </mxGraphModel>
  </diagram>
</mxfile>
